<svg width="128" height="128" viewBox="0 0 128 128" fill="none" xmlns="http://www.w3.org/2000/svg">
<path d="M64 128C99.3462 128 128 99.3462 128 64C128 28.6538 99.3462 0 64 0C28.6538 0 0 28.6538 0 64C0 99.3462 28.6538 128 64 128Z" fill="#F5F5F5"/>
<path d="M64 72.4L102.2 39.7C101.6 39.3 100.8 39 100 39H28C27.2 39 26.4 39.3 25.8 39.7L64 72.4Z" fill="black"/>
<path d="M66.6 75.4C65.1 76.7 62.9 76.7 61.4 75.4L24 43.5V85C24 87.2 25.8 89 28 89H100C102.2 89 104 87.2 104 85V43.4L66.6 75.4Z" fill="black"/>
</svg>
