<svg width="413" height="413" viewBox="0 0 413 413" fill="none" xmlns="http://www.w3.org/2000/svg">
<path d="M349.14 0.5H68.98C32.572 0.5 0.5 26.952 0.5 63.36V343.52C0.5 379.928 32.572 412.5 68.98 412.5H242.446C242.121 358.5 242.523 298.366 242.261 246.113C231.197 246.001 220.123 245.429 209.059 245.259C209.1 226.792 209.076 207.942 209.083 189.478C220.14 189.341 231.204 189.315 242.261 189.21C242.599 171.253 241.923 153.185 242.615 135.244C243.718 121.039 249.134 106.681 259.755 96.867C272.614 84.628 290.897 80.47 308.142 79.955C326.375 79.792 344.61 79.879 362.852 79.887C362.924 99.127 362.924 118.369 362.844 137.609C351.055 137.589 339.259 137.632 327.47 137.584C320.002 137.117 312.325 142.782 310.966 150.193C310.789 163.068 310.902 175.95 310.909 188.821C328.194 188.894 345.486 188.801 362.771 188.865C361.507 207.494 359.19 226.033 356.486 244.502C341.214 244.639 325.932 246.016 310.668 246.104C310.539 298.34 310.708 358.499 310.575 412.499H349.139C385.547 412.499 412.499 379.927 412.499 343.519V63.36C412.5 26.952 385.548 0.5 349.14 0.5Z" fill="#EDECEC" fill-opacity="0.87"/>
</svg>
