<svg width="305" height="304" viewBox="0 0 305 304" fill="none" xmlns="http://www.w3.org/2000/svg">
<ellipse cx="148.5" cy="139.5" rx="123.5" ry="130.5" fill="black"/>
<ellipse cx="148.5" cy="139.5" rx="123.5" ry="130.5" fill="black"/>
<path d="M150.764 180.423C165.779 180.423 177.951 168.251 177.951 153.236C177.951 138.221 165.779 126.049 150.764 126.049C135.749 126.049 123.577 138.221 123.577 153.236C123.577 168.251 135.749 180.423 150.764 180.423Z" fill="#F5F5F5"/>
<path d="M184.748 86.5041H116.781C106.894 86.5041 98.244 89.5935 92.6831 95.1545C87.1221 100.715 84.0327 109.366 84.0327 119.252V187.219C84.0327 197.106 87.1221 205.756 93.3009 211.935C99.4798 217.496 107.512 220.585 117.399 220.585H184.748C194.634 220.585 203.285 217.496 208.846 211.935C215.025 206.374 218.114 197.724 218.114 187.837V119.87C218.114 109.984 215.025 101.951 209.464 95.7724C203.285 89.5935 195.252 86.5041 184.748 86.5041ZM150.764 195.252C127.285 195.252 108.748 176.098 108.748 153.236C108.748 129.756 127.903 111.22 150.764 111.22C173.626 111.22 193.399 129.756 193.399 153.236C193.399 176.715 174.244 195.252 150.764 195.252ZM194.634 119.252C189.073 119.252 184.748 114.927 184.748 109.366C184.748 103.805 189.073 99.4797 194.634 99.4797C200.195 99.4797 204.52 103.805 204.52 109.366C204.52 114.927 200.195 119.252 194.634 119.252Z" fill="#F5F5F5"/>
<path d="M152 0C67.9675 0 0 67.9675 0 152C0 236.033 67.9675 304 152 304C236.033 304 304 236.033 304 152C304.618 67.9675 236.033 0 152 0ZM232.943 187.837C232.943 202.049 228 214.406 219.35 223.057C210.699 231.707 198.341 236.033 184.748 236.033H117.398C103.805 236.033 91.4472 231.707 82.7968 223.057C73.5285 214.406 69.2032 202.049 69.2032 187.837V119.87C69.2032 91.4472 88.3577 71.6748 117.398 71.6748H185.366C199.577 71.6748 211.317 76.6179 219.967 85.2683C228.618 93.9187 232.943 105.659 232.943 119.87V187.837Z" fill="#F5F5F5"/>
</svg>
