<svg width="304" height="304" viewBox="0 0 304 304" fill="none" xmlns="http://www.w3.org/2000/svg">
<path d="M87.1014 164.796H98.1071V219.466H108.742V164.796H119.736V155.488H87.1014V164.796Z" fill="#F5F5F5"/>
<path d="M152.407 119.366C153.852 119.366 155 118.983 155.846 118.199C156.691 117.39 157.123 116.292 157.123 114.909V86.5767C157.123 85.441 156.691 84.5151 155.821 83.8299C154.951 83.1201 153.821 82.7682 152.407 82.7682C151.117 82.7682 150.068 83.1201 149.247 83.8299C148.438 84.5151 148.043 85.4471 148.043 86.5767V114.909C148.043 116.329 148.42 117.427 149.179 118.199C149.926 118.983 151.012 119.366 152.407 119.366Z" fill="#F5F5F5"/>
<path d="M175.857 171.691C174.388 171.691 172.937 172.067 171.505 172.814C170.092 173.561 168.734 174.672 167.468 176.104V155.488H157.932V219.466H167.468V215.849C168.697 217.306 170.049 218.368 171.493 219.059C172.925 219.744 174.579 220.084 176.437 220.084C179.221 220.084 181.381 219.201 182.838 217.417C184.32 215.621 185.067 213.065 185.067 209.726V183.53C185.067 179.659 184.283 176.715 182.69 174.715C181.122 172.703 178.845 171.691 175.857 171.691ZM175.339 208.424C175.339 209.942 175.061 211.016 174.518 211.677C173.974 212.349 173.129 212.677 171.974 212.677C171.178 212.677 170.431 212.498 169.697 212.17C168.975 211.843 168.215 211.269 167.468 210.504V181.098C168.11 180.437 168.759 179.949 169.407 179.653C170.055 179.326 170.734 179.184 171.407 179.184C172.672 179.184 173.66 179.591 174.351 180.4C175.011 181.233 175.339 182.437 175.339 184.042V208.424Z" fill="#F5F5F5"/>
<path d="M141.389 208.133C140.507 209.146 139.531 209.979 138.47 210.652C137.408 211.312 136.519 211.64 135.84 211.64C134.945 211.64 134.309 211.399 133.902 210.893C133.519 210.399 133.309 209.59 133.309 208.479V172.265H123.884V211.738C123.884 214.559 124.439 216.633 125.538 218.065C126.662 219.466 128.285 220.164 130.47 220.164C132.242 220.164 134.075 219.682 135.957 218.67C137.84 217.645 139.649 216.201 141.396 214.294V219.466H150.833V172.271H141.396V208.133H141.389Z" fill="#F5F5F5"/>
<path d="M152 0C68.0528 0 0 68.0528 0 152C0 235.96 68.0528 304 152 304C235.947 304 304 235.96 304 152C304 68.0528 235.941 0 152 0ZM176.555 75.071H187.165V114.94C187.165 116.18 187.406 117.063 187.85 117.606C188.282 118.162 189.011 118.452 190.011 118.452C190.782 118.452 191.77 118.075 192.974 117.353C194.153 116.606 195.251 115.68 196.239 114.532V75.071H206.874V127.069H196.239V121.328C194.301 123.439 192.258 125.063 190.128 126.162C188.017 127.26 185.968 127.828 183.968 127.828C181.511 127.828 179.666 127.044 178.413 125.489C177.184 123.958 176.555 121.643 176.555 118.52V75.071ZM137.112 86.9594C137.112 82.9472 138.531 79.7375 141.389 77.324C144.26 74.9599 148.105 73.7563 152.926 73.7563C157.327 73.7563 160.919 75.0216 163.74 77.5277C166.536 80.0338 167.938 83.2929 167.938 87.2681V114.119C167.938 118.582 166.561 122.063 163.827 124.581C161.055 127.1 157.271 128.365 152.444 128.365C147.803 128.365 144.081 127.063 141.291 124.47C138.507 121.841 137.106 118.322 137.106 113.909V86.9594H137.112ZM108.175 56.5903L115.94 84.7496H116.699L124.088 56.5903H136.241L122.328 97.8355V127.075H110.366V99.1379L96.1257 56.5903H108.175V56.5903ZM247.299 204.936C247.299 223.744 232.046 239.009 213.238 239.009H94.8727C76.0525 239.009 60.8 223.744 60.8 204.936V177.542C60.8 158.722 76.0525 143.469 94.8727 143.469H213.238C232.046 143.469 247.299 158.722 247.299 177.542V204.936Z" fill="#F5F5F5"/>
<path d="M204.344 171.098C200.109 171.098 196.69 172.376 194.011 174.968C191.344 177.536 189.998 180.888 189.998 184.949V206.171C189.998 210.726 191.227 214.294 193.653 216.874C196.078 219.466 199.406 220.769 203.634 220.769C208.337 220.769 211.868 219.553 214.22 217.115C216.609 214.658 217.775 211.016 217.775 206.171V203.745H208.072V205.893C208.072 208.677 207.745 210.473 207.134 211.282C206.523 212.09 205.424 212.498 203.856 212.498C202.35 212.498 201.288 212.028 200.659 211.078C200.041 210.103 199.745 208.387 199.745 205.893V197.01H217.781V184.955C217.781 180.493 216.633 177.073 214.312 174.672C211.985 172.289 208.658 171.098 204.344 171.098ZM208.072 189.665H199.739V184.894C199.739 182.918 200.041 181.48 200.702 180.659C201.362 179.777 202.436 179.357 203.942 179.357C205.362 179.357 206.436 179.777 207.078 180.659C207.726 181.48 208.066 182.912 208.066 184.894V189.665H208.072Z" fill="#F5F5F5"/>
</svg>
